<svg width="23" height="9" viewBox="0 0 23 9" fill="none" xmlns="http://www.w3.org/2000/svg">
<path d="M22.6035 0.930133H21.3426C21.3168 0.911131 21.2929 0.887906 21.2659 0.87124C20.4027 0.339498 16.8806 0.464246 14.767 1.10241C14.5762 1.16 14.4 1.22037 14.238 1.28367C13.8691 1.428 13.4917 1.55356 13.0996 1.61075C12.6048 1.68289 12.066 1.72323 11.5 1.72323C10.9341 1.72323 10.3954 1.68294 9.90055 1.61079C9.50843 1.5537 9.13099 1.42809 8.76196 1.28371C8.60001 1.22037 8.42383 1.16 8.23313 1.10245C6.12027 0.464247 2.59775 0.339543 1.73453 0.871061C1.7074 0.887772 1.68354 0.911041 1.65753 0.930088H0.396572C0.177577 0.930088 0 1.10767 0 1.32666V2.21315C0 2.4025 0.0946957 2.57936 0.252192 2.68447L0.618936 2.92898C0.733352 3.00526 0.796603 3.13347 0.792335 3.27084C0.762192 4.24444 0.952527 5.35958 1.38054 6.36098C2.07104 7.97566 4.46817 8.46185 6.18604 8.46185C6.84594 8.46185 7.40589 8.3902 7.72965 8.28297C8.5669 8.0063 9.31859 6.86406 9.74341 5.88719C10.1072 5.05011 10.295 4.23401 10.3045 3.52838C10.3063 3.39186 10.3724 3.26738 10.4875 3.19384C10.7606 3.01932 11.1121 2.91286 11.5 2.91286C11.8879 2.91286 12.2394 3.01932 12.5125 3.19384C12.6276 3.26734 12.6937 3.39182 12.6955 3.52838C12.705 4.23401 12.8928 5.05011 13.2566 5.88719C13.6814 6.86406 14.4331 8.00625 15.2704 8.28297C15.5941 8.39025 16.1537 8.46185 16.814 8.46185C18.5318 8.46185 20.929 7.97544 21.6195 6.36098C22.0474 5.35954 22.2379 4.24439 22.2077 3.2708C22.2034 3.13338 22.2667 3.00522 22.3811 2.92894L22.7478 2.68447C22.9054 2.5794 23 2.40254 23 2.21315V1.32666C23.0001 1.10771 22.8225 0.930133 22.6035 0.930133ZM9.01577 5.57107C8.58204 6.56924 7.95084 7.37474 7.48105 7.53021C6.50745 7.85087 2.80996 7.68645 2.11012 6.04931C1.28796 4.12719 1.55013 1.91631 2.15078 1.54624C2.37696 1.4068 3.04962 1.32918 3.90853 1.32918C5.14892 1.32918 6.77694 1.49107 8.00381 1.86164C9.092 2.19024 9.31894 2.52464 9.3627 2.61929C9.65514 3.25489 9.51921 4.41357 9.01577 5.57107ZM20.8899 6.04936C20.1902 7.68686 16.4926 7.85051 15.519 7.53026C15.0492 7.37478 14.418 6.56924 13.9843 5.57112C13.4808 4.41357 13.3449 3.25489 13.6373 2.61943C13.6811 2.52473 13.908 2.19038 14.9962 1.86177C17.0723 1.23461 20.2962 1.20497 20.8496 1.54655C21.4499 1.91635 21.7121 4.12723 20.8899 6.04936Z" fill="white"/>
</svg>
