<svg width="23" height="23" viewBox="0 0 23 23" fill="none" xmlns="http://www.w3.org/2000/svg">
<path d="M22.4521 22.2648L15.9997 15.5545C17.6455 13.904 18.6651 11.6285 18.6651 9.11906C18.6651 4.09055 14.5746 0 9.54606 0C4.51755 0 0.427002 4.09055 0.427002 9.11906C0.427002 14.1476 4.51755 18.2381 9.54606 18.2381C11.7533 18.2381 13.779 17.4491 15.3579 16.1399L21.826 22.8667C21.9111 22.9557 22.0248 23 22.139 23C22.2476 23 22.3557 22.9596 22.44 22.8788C22.6128 22.7125 22.618 22.4377 22.4521 22.2648ZM9.54606 17.3696C4.99652 17.3696 1.29548 13.6686 1.29548 9.11906C1.29548 4.56952 4.99652 0.868482 9.54606 0.868482C14.0956 0.868482 17.7966 4.56952 17.7966 9.11906C17.7966 13.6686 14.0952 17.3696 9.54606 17.3696Z" fill="white"/>
</svg>
