<svg width="16" height="9" viewBox="0 0 16 9" fill="none" xmlns="http://www.w3.org/2000/svg">
<path d="M15.15 8.12799C15.1316 8.08682 15.1144 8.05268 15.0984 8.02532C14.8341 7.5324 14.3292 6.92739 13.5838 6.21009L13.568 6.19367L13.5601 6.18561L13.5521 6.17736H13.5441C13.2058 5.84335 12.9916 5.61877 12.9019 5.50379C12.7377 5.28476 12.701 5.06305 12.7907 4.83841C12.8541 4.66869 13.0922 4.31026 13.5044 3.76263C13.7212 3.4724 13.893 3.2398 14.0198 3.06455C14.9345 1.80515 15.331 1.00038 15.2093 0.649913L15.1621 0.568014C15.1304 0.518708 15.0484 0.473602 14.9164 0.432466C14.7841 0.391416 14.615 0.384627 14.4087 0.411984L12.1249 0.428324C12.0879 0.414746 12.0351 0.416011 11.9663 0.432466C11.8975 0.44892 11.8632 0.457177 11.8632 0.457177L11.8234 0.477745L11.7919 0.502455C11.7654 0.518794 11.7363 0.547533 11.7046 0.588611C11.673 0.629546 11.6466 0.677586 11.6255 0.732329C11.3768 1.39485 11.0942 2.01083 10.7769 2.58024C10.5813 2.91977 10.4016 3.21402 10.2375 3.46317C10.0737 3.71223 9.93623 3.89573 9.8253 4.01336C9.7142 4.1311 9.61393 4.22543 9.52388 4.29668C9.43398 4.36797 9.36534 4.39808 9.31782 4.38707C9.27018 4.37605 9.22533 4.36512 9.18286 4.35419C9.10889 4.30488 9.0494 4.23782 9.00454 4.15296C8.95949 4.0681 8.92916 3.96129 8.9133 3.83262C8.89752 3.70386 8.88819 3.59311 8.88553 3.49999C8.88305 3.40699 8.88419 3.27544 8.88955 3.10572C8.89505 2.93591 8.89753 2.82101 8.89753 2.76078C8.89753 2.55268 8.90144 2.32683 8.9093 2.08318C8.9173 1.83953 8.92377 1.64647 8.92919 1.50425C8.93458 1.36189 8.93708 1.21126 8.93708 1.05247C8.93708 0.893681 8.92774 0.76915 8.9093 0.678765C8.89108 0.588496 8.86311 0.500873 8.82625 0.415925C8.78917 0.331064 8.7349 0.265419 8.66369 0.218817C8.59233 0.172272 8.50362 0.135336 8.39804 0.107893C8.11782 0.0422185 7.76099 0.00669179 7.32739 0.00116861C6.34413 -0.0097627 5.71232 0.0559976 5.43213 0.198363C5.32111 0.258514 5.22065 0.3407 5.13082 0.444663C5.03564 0.565166 5.02236 0.630927 5.09108 0.641743C5.40833 0.690963 5.63292 0.808704 5.7651 0.994853L5.81273 1.09349C5.84978 1.16466 5.88678 1.29066 5.9238 1.47131C5.96077 1.65197 5.98463 1.85181 5.99513 2.07072C6.02152 2.47049 6.02152 2.8127 5.99513 3.09737C5.96866 3.38216 5.94366 3.60387 5.91981 3.76266C5.89595 3.92145 5.86028 4.05012 5.81273 4.14865C5.7651 4.2472 5.73341 4.30744 5.71752 4.3293C5.70166 4.35117 5.68844 4.36494 5.67794 4.37035C5.60922 4.39762 5.53776 4.41152 5.46379 4.41152C5.38972 4.41152 5.29989 4.37314 5.19418 4.29645C5.08849 4.21976 4.97881 4.11442 4.86513 3.98025C4.75144 3.84605 4.62323 3.65852 4.48044 3.41763C4.33776 3.17674 4.18972 2.89204 4.0364 2.56352L3.90955 2.32528C3.83025 2.17201 3.72193 1.94884 3.58447 1.65597C3.44693 1.36298 3.32535 1.07957 3.21967 0.805799C3.17742 0.690819 3.11396 0.603282 3.02938 0.543045L2.98969 0.518334C2.9633 0.496472 2.92095 0.473257 2.86284 0.448518C2.80465 0.423807 2.74394 0.406087 2.68044 0.395184L0.507619 0.411524C0.285584 0.411524 0.134932 0.46362 0.0556059 0.567669L0.0238589 0.616888C0.00799925 0.644303 0 0.688086 0 0.748352C0 0.808589 0.0158596 0.882519 0.0476066 0.970056C0.364799 1.74215 0.709739 2.48677 1.08243 3.20404C1.45511 3.92131 1.77897 4.49908 2.05381 4.93685C2.3287 5.37494 2.60889 5.7884 2.89439 6.17704C3.1799 6.56582 3.36888 6.81497 3.46134 6.92442C3.55392 7.03408 3.62663 7.11607 3.67949 7.17081L3.87777 7.36789C4.00465 7.49932 4.19097 7.65673 4.43681 7.84012C4.6827 8.02362 4.95492 8.20428 5.25362 8.38237C5.55237 8.56018 5.89992 8.70528 6.29646 8.81749C6.69295 8.92983 7.07886 8.97491 7.45424 8.95316H8.36621C8.55117 8.93662 8.69129 8.87638 8.78654 8.77242L8.81809 8.73125C8.83931 8.69857 8.85917 8.6478 8.8775 8.57948C8.89605 8.51104 8.90527 8.43565 8.90527 8.35363C8.89986 8.11824 8.91716 7.90608 8.95671 7.7172C8.99624 7.52838 9.04129 7.38601 9.09167 7.29013C9.14203 7.19434 9.19886 7.11351 9.2621 7.04798C9.32549 6.9823 9.37065 6.94252 9.39715 6.92882C9.42348 6.91505 9.4445 6.9057 9.46036 6.90009C9.58724 6.8563 9.73656 6.89871 9.90854 7.02749C10.0804 7.15617 10.2416 7.31504 10.3923 7.50387C10.543 7.69286 10.724 7.9049 10.9355 8.1403C11.147 8.37578 11.332 8.55083 11.4906 8.66598L11.6491 8.76453C11.755 8.8303 11.8924 8.89053 12.0616 8.94528C12.2305 8.99999 12.3785 9.01368 12.5056 8.98633L14.5356 8.95353C14.7364 8.95353 14.8926 8.9191 15.0035 8.85078C15.1145 8.78234 15.1805 8.70694 15.2017 8.62493C15.223 8.54283 15.2241 8.44969 15.2058 8.34555C15.187 8.24167 15.1684 8.16904 15.15 8.12799Z" fill="#0485FD"/>
</svg>
