<svg width="15" height="9" viewBox="0 0 15 9" fill="none" xmlns="http://www.w3.org/2000/svg">
<path d="M14.9204 8.12799C14.9023 8.08682 14.8854 8.05268 14.8696 8.02532C14.6094 7.5324 14.112 6.92739 13.3779 6.21009L13.3624 6.19367L13.3547 6.18561L13.3468 6.17736H13.3389C13.0058 5.84335 12.7948 5.61877 12.7064 5.50379C12.5448 5.28476 12.5085 5.06305 12.5969 4.83841C12.6593 4.66869 12.8938 4.31026 13.2998 3.76263C13.5133 3.4724 13.6825 3.2398 13.8074 3.06455C14.7082 1.80515 15.0987 1.00038 14.9789 0.649913L14.9324 0.568014C14.9011 0.518708 14.8204 0.473602 14.6904 0.432466C14.5601 0.391416 14.3935 0.384627 14.1904 0.411984L11.9412 0.428324C11.9048 0.414746 11.8528 0.416011 11.785 0.432466C11.7173 0.44892 11.6834 0.457177 11.6834 0.457177L11.6443 0.477745L11.6132 0.502455C11.5872 0.518794 11.5585 0.547533 11.5273 0.588611C11.4962 0.629546 11.4701 0.677586 11.4493 0.732329C11.2045 1.39485 10.9261 2.01083 10.6136 2.58024C10.4209 2.91977 10.244 3.21402 10.0824 3.46317C9.92106 3.71223 9.78568 3.89573 9.67643 4.01336C9.56701 4.1311 9.46826 4.22543 9.37958 4.29668C9.29104 4.36797 9.22344 4.39808 9.17664 4.38707C9.12973 4.37605 9.08555 4.36512 9.04373 4.35419C8.97088 4.30488 8.91229 4.23782 8.86811 4.15296C8.82374 4.0681 8.79387 3.96129 8.77825 3.83262C8.76271 3.70386 8.75352 3.59311 8.7509 3.49999C8.74846 3.40699 8.74958 3.27544 8.75486 3.10572C8.76028 2.93591 8.76271 2.82101 8.76271 2.76078C8.76271 2.55268 8.76657 2.32683 8.77431 2.08318C8.78219 1.83953 8.78856 1.64647 8.7939 1.50425C8.7992 1.36189 8.80167 1.21126 8.80167 1.05247C8.80167 0.893681 8.79248 0.76915 8.77431 0.678765C8.75637 0.588496 8.72882 0.500873 8.69252 0.415925C8.656 0.331064 8.60256 0.265419 8.53242 0.218817C8.46214 0.172272 8.37478 0.135336 8.2708 0.107893C7.99482 0.0422185 7.6434 0.00669179 7.21637 0.00116861C6.248 -0.0097627 5.62577 0.0559976 5.34982 0.198363C5.24049 0.258514 5.14155 0.3407 5.05308 0.444663C4.95934 0.565166 4.94627 0.630927 5.01394 0.641743C5.32638 0.690963 5.54757 0.808704 5.67775 0.994853L5.72466 1.09349C5.76115 1.16466 5.79759 1.29066 5.83405 1.47131C5.87046 1.65197 5.89396 1.85181 5.9043 2.07072C5.93028 2.47049 5.93028 2.8127 5.9043 3.09737C5.87823 3.38216 5.85361 3.60387 5.83011 3.76266C5.80661 3.92145 5.77149 4.05012 5.72466 4.14865C5.67775 4.2472 5.64654 4.30744 5.63089 4.3293C5.61527 4.35117 5.60225 4.36494 5.59191 4.37035C5.52424 4.39762 5.45385 4.41152 5.38101 4.41152C5.30805 4.41152 5.21959 4.37314 5.11548 4.29645C5.0114 4.21976 4.90337 4.11442 4.79141 3.98025C4.67945 3.84605 4.55318 3.65852 4.41256 3.41763C4.27204 3.17674 4.12624 2.89204 3.97524 2.56352L3.85031 2.32528C3.77222 2.17201 3.66554 1.94884 3.53016 1.65597C3.3947 1.36298 3.27497 1.07957 3.17089 0.805799C3.12928 0.690819 3.06678 0.603282 2.98348 0.543045L2.94439 0.518334C2.91841 0.496472 2.87669 0.473257 2.81947 0.448518C2.76216 0.423807 2.70236 0.406087 2.63983 0.395184L0.499928 0.411524C0.281257 0.411524 0.132887 0.46362 0.0547634 0.567669L0.0234974 0.616888C0.00787805 0.644303 0 0.688086 0 0.748352C0 0.808589 0.0156193 0.882519 0.0468853 0.970056C0.359272 1.74215 0.698985 2.48677 1.06603 3.20404C1.43307 3.92131 1.75202 4.49908 2.02269 4.93685C2.29341 5.37494 2.56937 5.7884 2.85054 6.17704C3.13172 6.56582 3.31783 6.81497 3.4089 6.92442C3.50007 7.03408 3.57168 7.11607 3.62374 7.17081L3.81902 7.36789C3.94398 7.49932 4.12747 7.65673 4.36958 7.84012C4.61175 8.02362 4.87985 8.20428 5.17402 8.38237C5.46824 8.56018 5.81053 8.70528 6.20106 8.81749C6.59155 8.92983 6.97161 8.97491 7.3413 8.95316H8.23945C8.42161 8.93662 8.55961 8.87638 8.65341 8.77242L8.68448 8.73125C8.70538 8.69857 8.72494 8.6478 8.74299 8.57948C8.76126 8.51104 8.77035 8.43565 8.77035 8.35363C8.76501 8.11824 8.78205 7.90608 8.82101 7.7172C8.85993 7.52838 8.9043 7.38601 8.95392 7.29013C9.00351 7.19434 9.05948 7.11351 9.12177 7.04798C9.18419 6.9823 9.22867 6.94252 9.25476 6.92882C9.2807 6.91505 9.3014 6.9057 9.31702 6.90009C9.44198 6.8563 9.58903 6.89871 9.75841 7.02749C9.92765 7.15617 10.0864 7.31504 10.2349 7.50387C10.3833 7.69286 10.5616 7.9049 10.7698 8.1403C10.9781 8.37578 11.1603 8.55083 11.3165 8.66598L11.4726 8.76453C11.5769 8.8303 11.7123 8.89053 11.8789 8.94528C12.0452 8.99999 12.191 9.01368 12.3161 8.98633L14.3154 8.95353C14.5131 8.95353 14.667 8.9191 14.7761 8.85078C14.8855 8.78234 14.9505 8.70694 14.9714 8.62493C14.9923 8.54283 14.9934 8.44969 14.9754 8.34555C14.9569 8.24167 14.9386 8.16904 14.9204 8.12799Z" fill="#8B8B8B"/>
</svg>
