<svg width="26" height="26" viewBox="0 0 26 26" fill="none" xmlns="http://www.w3.org/2000/svg">
<g clip-path="url(#clip0)">
<path d="M17.6126 0H8.38675C7.46415 0 6.70933 0.754817 6.70933 1.67742C5.78673 1.67742 5.03191 2.43224 5.03191 3.35484C4.10931 3.35484 3.35449 4.10966 3.35449 5.03226V24.3226C3.35449 25.2451 4.10931 26 5.03191 26H17.6126C18.5351 26 19.29 25.2451 19.29 24.3226C20.2125 24.3226 20.9674 23.5677 20.9674 22.6452C21.89 22.6452 22.6448 21.8903 22.6448 20.9677V6.29034V5.87101L17.6126 0ZM17.6126 1.25809L21.5545 5.87101H18.4513C18.0319 5.87101 17.6126 5.45168 17.6126 5.0323V1.25809ZM17.6126 25.1613H5.03191C4.61258 25.1613 4.1932 24.8258 4.1932 24.3226V5.03226C4.1932 4.61293 4.52869 4.19355 5.03191 4.19355V22.6452C5.03191 23.5677 5.78673 24.3226 6.70933 24.3226H18.4513C18.4513 24.742 18.1158 25.1613 17.6126 25.1613ZM20.1287 22.6452C20.1287 23.0645 19.7932 23.4839 19.29 23.4839H6.70933C6.29 23.4839 5.87062 23.1484 5.87062 22.6452V3.35484C5.87062 2.93551 6.2061 2.51613 6.70933 2.51613V20.9677C6.70933 21.8903 7.46415 22.6452 8.38675 22.6452H20.1287ZM21.8061 20.9677C21.8061 21.3871 21.4706 21.8065 20.9674 21.8065H8.38675C7.96742 21.8065 7.54804 21.471 7.54804 20.9677V1.67742C7.54804 1.25809 7.88352 0.83871 8.38675 0.83871H16.7738V5.03226C16.7738 5.95486 17.5287 6.70968 18.4513 6.70968H21.8061V20.9677Z" fill="black"/>
</g>
<defs>
<clipPath id="clip0">
<rect width="26" height="26" fill="white"/>
</clipPath>
</defs>
</svg>
