<svg id="svg" version="1.1" width="400" height="400" xmlns="http://www.w3.org/2000/svg" xmlns:xlink="http://www.w3.org/1999/xlink" style="display: block;"><g id="svgg"><path id="path0" d="M115.993 297.583 C 112.623 301.030,109.424 305.937,110.413 306.141 C 111.926 306.454,115.458 306.986,115.522 306.911 C 115.918 306.447,118.143 299.229,118.808 296.250 C 119.137 294.777,118.390 295.131,115.993 297.583 M282.871 302.047 C 282.119 303.120,281.264 305.846,281.398 306.742 C 281.476 307.258,281.859 306.555,282.599 304.538 C 283.717 301.495,283.801 300.719,282.871 302.047 M268.335 309.411 C 267.104 311.434,266.617 315.267,267.551 315.574 C 268.000 315.722,269.228 312.235,269.542 309.917 C 269.800 308.016,269.308 307.810,268.335 309.411 M144.231 315.332 C 141.679 318.171,141.447 318.936,143.527 317.650 C 144.789 316.870,146.103 314.945,145.942 314.112 C 145.862 313.697,145.413 314.017,144.231 315.332 M235.794 316.027 C 233.928 318.482,233.208 319.652,233.427 319.872 C 233.700 320.144,236.214 317.531,236.836 316.329 C 237.874 314.320,237.233 314.135,235.794 316.027 M246.390 315.487 C 244.556 317.575,241.799 323.333,242.633 323.333 C 243.171 323.333,247.265 318.109,247.950 316.547 C 249.038 314.069,248.159 313.472,246.390 315.487 M263.709 316.468 C 263.276 318.190,263.210 320.667,263.597 320.667 C 263.923 320.667,266.848 317.715,266.646 317.590 C 266.566 317.541,266.200 317.335,265.833 317.134 C 265.467 316.933,265.002 316.442,264.800 316.045 C 264.201 314.866,264.103 314.904,263.709 316.468 M243.440 331.583 C 240.621 335.833,240.354 336.896,242.729 334.417 C 243.969 333.122,244.888 331.553,245.352 329.936 C 245.796 328.388,245.247 328.861,243.440 331.583 " stroke="none" fill="#000000" fill-rule="evenodd"></path><path id="path1" d="M115.993 297.583 C 112.623 301.030,109.424 305.937,110.413 306.141 C 111.926 306.454,115.458 306.986,115.522 306.911 C 115.918 306.447,118.143 299.229,118.808 296.250 C 119.137 294.777,118.390 295.131,115.993 297.583 M282.871 302.047 C 282.119 303.120,281.264 305.846,281.398 306.742 C 281.476 307.258,281.859 306.555,282.599 304.538 C 283.717 301.495,283.801 300.719,282.871 302.047 M268.335 309.411 C 267.104 311.434,266.617 315.267,267.551 315.574 C 268.000 315.722,269.228 312.235,269.542 309.917 C 269.800 308.016,269.308 307.810,268.335 309.411 M144.231 315.332 C 141.679 318.171,141.447 318.936,143.527 317.650 C 144.789 316.870,146.103 314.945,145.942 314.112 C 145.862 313.697,145.413 314.017,144.231 315.332 M235.794 316.027 C 233.928 318.482,233.208 319.652,233.427 319.872 C 233.700 320.144,236.214 317.531,236.836 316.329 C 237.874 314.320,237.233 314.135,235.794 316.027 M246.390 315.487 C 244.556 317.575,241.799 323.333,242.633 323.333 C 243.171 323.333,247.265 318.109,247.950 316.547 C 249.038 314.069,248.159 313.472,246.390 315.487 M263.709 316.468 C 263.276 318.190,263.210 320.667,263.597 320.667 C 263.923 320.667,266.848 317.715,266.646 317.590 C 266.566 317.541,266.200 317.335,265.833 317.134 C 265.467 316.933,265.002 316.442,264.800 316.045 C 264.201 314.866,264.103 314.904,263.709 316.468 M243.440 331.583 C 240.621 335.833,240.354 336.896,242.729 334.417 C 243.969 333.122,244.888 331.553,245.352 329.936 C 245.796 328.388,245.247 328.861,243.440 331.583 " stroke="none" fill="#000000" fill-rule="evenodd"></path><path id="path2" d="M115.993 297.583 C 112.623 301.030,109.424 305.937,110.413 306.141 C 111.926 306.454,115.458 306.986,115.522 306.911 C 115.918 306.447,118.143 299.229,118.808 296.250 C 119.137 294.777,118.390 295.131,115.993 297.583 M282.871 302.047 C 282.119 303.120,281.264 305.846,281.398 306.742 C 281.476 307.258,281.859 306.555,282.599 304.538 C 283.717 301.495,283.801 300.719,282.871 302.047 M268.335 309.411 C 267.104 311.434,266.617 315.267,267.551 315.574 C 268.000 315.722,269.228 312.235,269.542 309.917 C 269.800 308.016,269.308 307.810,268.335 309.411 M144.231 315.332 C 141.679 318.171,141.447 318.936,143.527 317.650 C 144.789 316.870,146.103 314.945,145.942 314.112 C 145.862 313.697,145.413 314.017,144.231 315.332 M235.794 316.027 C 233.928 318.482,233.208 319.652,233.427 319.872 C 233.700 320.144,236.214 317.531,236.836 316.329 C 237.874 314.320,237.233 314.135,235.794 316.027 M246.390 315.487 C 244.556 317.575,241.799 323.333,242.633 323.333 C 243.171 323.333,247.265 318.109,247.950 316.547 C 249.038 314.069,248.159 313.472,246.390 315.487 M263.709 316.468 C 263.276 318.190,263.210 320.667,263.597 320.667 C 263.923 320.667,266.848 317.715,266.646 317.590 C 266.566 317.541,266.200 317.335,265.833 317.134 C 265.467 316.933,265.002 316.442,264.800 316.045 C 264.201 314.866,264.103 314.904,263.709 316.468 M243.440 331.583 C 240.621 335.833,240.354 336.896,242.729 334.417 C 243.969 333.122,244.888 331.553,245.352 329.936 C 245.796 328.388,245.247 328.861,243.440 331.583 " stroke="none" fill="#000000" fill-rule="evenodd"></path><path id="path3" d="M115.993 297.583 C 112.623 301.030,109.424 305.937,110.413 306.141 C 111.926 306.454,115.458 306.986,115.522 306.911 C 115.918 306.447,118.143 299.229,118.808 296.250 C 119.137 294.777,118.390 295.131,115.993 297.583 M282.871 302.047 C 282.119 303.120,281.264 305.846,281.398 306.742 C 281.476 307.258,281.859 306.555,282.599 304.538 C 283.717 301.495,283.801 300.719,282.871 302.047 M268.335 309.411 C 267.104 311.434,266.617 315.267,267.551 315.574 C 268.000 315.722,269.228 312.235,269.542 309.917 C 269.800 308.016,269.308 307.810,268.335 309.411 M144.231 315.332 C 141.679 318.171,141.447 318.936,143.527 317.650 C 144.789 316.870,146.103 314.945,145.942 314.112 C 145.862 313.697,145.413 314.017,144.231 315.332 M235.794 316.027 C 233.928 318.482,233.208 319.652,233.427 319.872 C 233.700 320.144,236.214 317.531,236.836 316.329 C 237.874 314.320,237.233 314.135,235.794 316.027 M246.390 315.487 C 244.556 317.575,241.799 323.333,242.633 323.333 C 243.171 323.333,247.265 318.109,247.950 316.547 C 249.038 314.069,248.159 313.472,246.390 315.487 M263.709 316.468 C 263.276 318.190,263.210 320.667,263.597 320.667 C 263.923 320.667,266.848 317.715,266.646 317.590 C 266.566 317.541,266.200 317.335,265.833 317.134 C 265.467 316.933,265.002 316.442,264.800 316.045 C 264.201 314.866,264.103 314.904,263.709 316.468 M243.440 331.583 C 240.621 335.833,240.354 336.896,242.729 334.417 C 243.969 333.122,244.888 331.553,245.352 329.936 C 245.796 328.388,245.247 328.861,243.440 331.583 " stroke="none" fill="#000000" fill-rule="evenodd"></path><path id="path4" d="M187.333 37.830 C 137.694 45.176,97.186 57.449,74.065 72.147 L 69.833 74.838 69.596 76.502 C 68.094 87.014,67.231 124.642,68.262 134.667 C 72.451 175.407,86.161 216.706,114.160 272.917 C 117.105 278.829,119.332 283.667,119.109 283.667 C 118.886 283.667,115.083 282.759,110.656 281.650 C 87.503 275.850,64.392 267.545,45.559 258.258 C 38.303 254.680,38.665 254.830,38.670 255.417 C 38.690 258.097,58.901 277.598,82.764 297.963 C 84.560 299.495,85.976 300.801,85.912 300.865 C 85.169 301.609,54.544 305.667,49.677 305.667 C 47.923 305.667,48.537 306.205,53.583 309.093 C 126.259 350.678,201.685 360.943,273.675 339.044 C 293.138 333.123,322.618 319.491,330.048 312.976 L 330.833 312.287 324.333 312.475 C 320.758 312.578,313.933 312.763,309.167 312.884 L 300.500 313.106 303.010 311.107 C 320.297 297.342,347.070 264.738,348.238 256.028 C 348.470 254.306,349.454 253.975,339.111 259.090 C 319.486 268.795,292.341 278.997,277.754 282.151 L 276.674 282.385 282.922 269.776 C 309.570 215.996,322.950 175.751,327.231 136.500 C 328.444 125.377,327.856 93.479,326.128 76.722 L 325.945 74.945 322.723 72.863 C 299.202 57.667,257.761 45.028,207.833 37.823 C 198.129 36.422,196.840 36.423,187.333 37.830 M211.000 57.661 C 256.648 63.185,283.104 70.854,303.938 84.600 C 308.463 87.586,308.439 87.551,309.323 92.167 C 316.835 131.368,303.285 191.459,270.502 264.333 C 267.256 271.551,260.134 286.333,259.903 286.333 C 259.822 286.333,257.761 286.709,255.324 287.168 C 252.887 287.628,250.855 287.965,250.808 287.918 C 250.762 287.872,251.615 285.733,252.705 283.167 C 275.837 228.660,288.307 184.173,290.984 146.604 C 291.833 134.697,290.725 94.835,289.518 93.852 C 271.086 78.840,241.475 67.454,203.675 60.844 C 196.838 59.648,193.942 59.921,178.953 63.177 C 145.754 70.387,121.667 80.398,105.148 93.852 C 103.942 94.835,102.834 134.697,103.682 146.604 C 106.337 183.859,118.125 226.245,141.045 280.957 C 142.687 284.875,143.952 288.159,143.857 288.254 C 143.650 288.461,136.570 287.352,136.049 287.030 C 134.829 286.276,121.554 257.106,114.460 239.592 C 89.360 177.621,79.775 127.208,86.362 91.814 C 87.194 87.342,86.834 87.890,90.667 85.264 C 109.559 72.315,135.869 64.077,175.000 58.857 C 196.482 55.991,197.044 55.972,211.000 57.661 M205.833 78.659 C 239.528 83.416,262.401 91.827,275.733 104.361 L 277.299 105.833 277.973 110.667 C 283.036 146.946,272.669 201.691,248.339 267.167 C 246.685 271.616,239.684 289.397,239.507 289.594 C 238.822 290.360,216.013 292.133,201.790 292.527 L 193.746 292.749 190.770 290.791 C 189.133 289.714,185.139 287.558,181.895 286.000 C 177.071 283.683,175.957 283.018,175.778 282.348 C 175.252 280.375,177.361 272.451,179.787 267.282 C 180.446 265.878,181.300 263.928,181.686 262.948 C 182.072 261.968,183.365 259.075,184.559 256.518 C 185.841 253.773,186.925 250.905,187.207 249.518 C 187.868 246.261,188.228 245.493,189.575 244.466 C 191.206 243.221,191.960 241.269,192.492 236.913 C 192.830 234.143,193.263 232.385,194.155 230.167 C 195.889 225.854,196.630 222.737,197.048 218.000 C 197.550 212.298,197.930 211.676,201.701 210.379 C 207.797 208.282,208.155 207.297,204.689 202.177 C 201.612 197.632,201.184 196.260,201.426 191.720 C 201.772 185.210,202.455 184.181,207.206 183.004 C 208.876 182.591,214.454 178.737,221.000 173.473 C 228.416 167.510,229.536 166.937,229.248 169.250 C 229.162 169.938,228.912 172.000,228.691 173.833 C 226.756 189.905,226.050 191.740,219.816 196.923 C 214.859 201.044,215.000 200.882,215.000 202.470 C 215.000 204.442,216.219 206.672,219.166 210.091 C 221.613 212.930,221.731 213.148,223.209 217.591 C 225.688 225.038,227.886 228.733,229.108 227.511 C 230.221 226.398,230.231 210.638,229.122 207.579 C 227.544 203.230,231.362 192.877,238.479 182.202 C 250.854 163.640,253.857 152.241,247.932 146.316 C 242.222 140.606,225.010 143.223,212.282 151.737 C 209.591 153.537,209.266 153.667,207.448 153.669 C 202.354 153.676,199.557 154.650,198.072 156.933 C 195.419 161.014,194.128 161.252,193.202 157.831 C 191.650 152.101,192.585 144.081,195.470 138.364 C 196.826 135.676,197.427 135.584,200.674 137.567 C 203.212 139.116,203.315 139.436,202.234 142.415 L 201.436 144.612 202.468 144.593 C 203.036 144.582,203.838 144.687,204.250 144.826 C 204.964 145.066,205.000 144.994,205.000 143.353 C 205.000 140.699,205.918 140.403,215.403 139.994 C 226.761 139.505,231.947 138.542,235.310 136.296 C 240.058 133.125,250.846 120.147,258.389 108.532 C 261.426 103.854,257.360 99.247,250.626 99.734 C 246.994 99.997,246.149 101.633,246.418 107.875 L 246.595 111.963 243.934 114.652 C 239.770 118.861,233.360 123.826,225.879 128.638 C 223.641 130.078,223.573 130.097,222.713 129.556 C 222.229 129.251,219.846 127.850,217.417 126.441 C 213.226 124.010,213.000 123.825,213.000 122.828 C 213.000 121.220,217.773 114.922,223.481 109.000 C 230.179 102.051,226.622 91.751,218.757 95.321 C 216.358 96.410,215.940 97.482,215.342 104.076 C 214.838 109.641,213.892 111.004,206.415 116.938 C 201.408 120.912,199.367 121.639,197.200 120.219 C 194.267 118.297,195.179 114.421,198.516 114.626 L 200.000 114.717 200.000 113.408 C 200.000 111.880,201.225 109.391,202.705 107.911 C 205.474 105.141,204.672 100.612,200.628 96.187 C 196.604 91.785,190.480 91.366,185.023 95.120 C 183.339 96.278,183.181 96.320,181.381 96.082 C 173.288 95.012,163.389 96.785,155.601 100.700 C 149.518 103.758,149.018 106.380,154.210 107.986 L 156.156 108.588 157.828 107.077 C 163.244 102.180,169.568 99.892,177.738 99.874 C 183.061 99.862,182.713 99.686,182.729 102.407 C 182.751 106.378,180.207 109.603,174.130 113.306 C 163.024 120.073,160.625 122.118,158.329 126.777 C 152.234 139.142,154.435 148.669,166.858 163.696 C 169.183 166.509,171.445 169.354,171.886 170.019 L 172.686 171.229 171.676 173.148 C 169.929 176.471,170.278 179.177,173.659 188.505 C 176.221 195.577,176.265 200.411,173.860 210.771 C 173.182 213.692,173.131 213.444,174.622 214.431 L 175.910 215.283 176.088 219.558 C 176.291 224.446,177.273 228.795,179.319 233.881 L 180.576 237.003 178.610 237.885 C 172.090 240.812,170.000 246.380,169.684 261.667 C 169.443 273.389,169.509 273.066,165.818 280.420 C 163.350 285.338,162.511 287.892,162.791 289.641 L 162.986 290.864 160.076 290.576 C 154.710 290.044,155.748 291.497,149.784 276.167 C 123.256 207.976,111.394 148.647,116.694 110.667 L 117.368 105.833 118.934 104.361 C 127.299 96.497,141.373 89.389,157.500 84.885 C 167.898 81.981,194.905 77.087,198.000 77.547 C 198.458 77.615,201.983 78.115,205.833 78.659 M111.417 293.737 C 112.724 294.652,112.599 295.537,110.493 300.305 C 108.212 305.469,108.331 305.600,111.318 301.212 C 113.603 297.856,117.560 293.667,118.447 293.667 C 118.679 293.667,119.649 294.055,120.601 294.530 L 122.333 295.393 122.333 297.096 C 122.333 298.241,121.833 300.273,120.804 303.306 C 119.848 306.125,119.411 307.859,119.637 307.935 C 120.237 308.135,120.046 308.667,119.374 308.667 C 118.937 308.667,118.524 309.192,118.002 310.417 C 117.398 311.833,112.702 321.894,112.470 322.269 C 112.360 322.446,109.333 320.217,109.333 319.960 C 109.333 319.825,109.855 318.839,110.492 317.770 C 111.688 315.762,115.117 308.339,114.934 308.156 C 114.877 308.099,113.406 307.949,111.665 307.823 L 108.500 307.594 107.181 309.880 C 104.040 315.325,103.745 315.688,102.816 315.265 C 102.347 315.051,102.048 314.690,102.140 314.449 C 102.231 314.212,102.065 313.883,101.771 313.718 C 101.296 313.452,101.353 313.136,102.284 310.899 C 103.543 307.875,103.534 308.000,102.505 308.000 L 101.677 308.000 102.234 306.833 C 102.656 305.948,102.997 305.666,103.645 305.666 C 104.499 305.665,107.324 299.116,108.718 293.905 C 109.166 292.231,109.259 292.225,111.417 293.737 M262.176 296.704 C 264.771 297.357,264.652 298.020,259.186 313.312 C 258.174 316.142,257.401 318.512,257.468 318.579 C 257.660 318.771,260.860 314.249,261.677 312.632 C 263.157 309.702,264.667 307.954,265.624 308.065 C 266.247 308.138,266.744 307.890,267.359 307.200 C 268.336 306.102,269.312 306.143,270.590 307.333 C 271.586 308.262,271.558 310.158,270.502 313.148 C 269.586 315.746,269.595 315.837,270.712 315.328 C 271.368 315.029,271.754 314.182,272.879 310.565 C 274.197 306.334,274.285 306.163,275.208 306.069 C 277.701 305.814,277.717 306.314,275.425 313.039 C 272.801 320.740,273.066 320.995,277.295 314.833 C 279.726 311.292,279.739 311.256,279.129 309.794 C 277.933 306.932,280.230 300.530,283.051 298.858 C 284.007 298.291,286.000 298.142,286.000 298.637 C 286.000 299.339,283.931 305.194,282.875 307.479 C 281.561 310.322,281.743 310.857,284.090 311.059 C 284.782 311.118,285.380 311.317,285.419 311.500 C 285.544 312.080,283.198 312.641,281.884 312.345 L 280.673 312.072 279.131 314.612 C 277.031 318.071,274.741 320.990,273.880 321.306 C 272.386 321.855,270.697 321.975,270.872 321.519 C 270.964 321.281,270.805 320.996,270.519 320.887 C 269.909 320.653,269.851 319.527,270.372 318.033 C 270.576 317.446,270.679 316.901,270.600 316.822 C 270.255 316.477,268.361 317.530,267.888 318.330 C 266.212 321.167,262.681 323.313,261.704 322.088 C 261.408 321.717,260.946 321.347,260.677 321.266 C 260.407 321.184,260.021 320.454,259.818 319.642 L 259.450 318.167 257.846 321.443 C 256.556 324.077,256.122 324.689,255.637 324.562 C 255.304 324.475,254.981 324.558,254.918 324.746 C 254.795 325.115,252.664 324.162,252.671 323.741 C 252.673 323.609,253.053 322.316,253.516 320.868 C 254.697 317.170,254.480 317.160,251.564 320.786 L 248.989 323.987 248.533 328.775 C 247.899 335.437,246.893 337.347,242.964 339.352 C 241.718 339.988,241.551 340.001,240.818 339.521 C 240.381 339.234,239.810 339.000,239.549 339.000 C 239.288 339.000,238.725 338.718,238.300 338.373 L 237.525 337.746 238.467 336.324 C 238.985 335.541,240.891 332.898,242.704 330.449 C 245.899 326.134,246.000 325.944,245.993 324.249 L 245.986 322.500 244.546 324.146 C 243.155 325.737,241.000 326.024,241.000 324.619 C 241.000 324.454,240.612 324.142,240.138 323.926 C 239.426 323.602,239.309 323.372,239.463 322.600 C 239.727 321.282,239.300 321.433,237.626 323.250 C 233.817 327.382,232.782 327.734,230.531 325.660 C 229.160 324.396,229.000 324.096,229.000 322.791 C 229.000 320.456,228.069 321.431,225.661 326.290 L 224.608 328.413 223.264 328.233 C 221.264 327.965,221.255 327.856,222.845 323.167 C 223.653 320.783,224.414 317.933,224.536 316.833 L 224.758 314.833 223.680 316.167 C 222.053 318.178,220.177 321.476,218.653 325.002 C 217.004 328.817,216.959 328.869,215.763 328.373 C 214.727 327.944,214.528 326.205,215.292 324.250 C 215.878 322.751,215.291 323.217,213.023 326.051 C 209.711 330.191,208.896 330.442,206.327 328.121 C 205.086 327.000,205.017 326.840,205.211 325.546 C 205.478 323.774,205.094 324.118,203.434 327.142 C 202.090 329.589,201.402 329.980,199.750 329.232 C 198.792 328.799,198.800 328.675,200.021 325.329 C 201.033 322.556,202.339 317.629,202.317 316.667 C 202.282 315.098,198.451 320.783,196.232 325.699 C 194.305 329.968,194.511 329.740,193.162 329.097 C 192.335 328.703,192.107 328.439,192.347 328.151 C 192.529 327.931,192.588 327.515,192.477 327.227 C 192.366 326.938,193.334 323.431,194.628 319.434 C 197.270 311.275,198.133 308.190,198.687 304.917 C 198.897 303.679,199.122 302.667,199.188 302.667 C 199.965 302.667,203.011 304.175,203.155 304.631 C 203.337 305.203,201.502 310.957,199.810 315.121 C 198.671 317.924,198.779 318.043,200.635 316.034 C 202.273 314.262,203.773 313.914,205.457 314.917 C 205.881 315.169,205.448 318.229,204.666 320.501 C 203.479 323.953,204.913 322.904,207.631 318.333 C 208.231 317.325,209.165 315.975,209.708 315.333 L 210.695 314.167 212.598 315.217 C 214.876 316.475,215.185 317.395,213.826 318.877 L 212.949 319.833 213.133 318.750 C 213.527 316.427,211.441 318.782,209.515 322.833 C 206.604 328.957,208.002 329.373,213.151 323.917 L 216.689 320.167 218.035 315.913 C 219.712 310.614,221.333 304.243,221.333 302.954 C 221.333 301.667,221.885 301.512,223.862 302.244 C 226.288 303.142,226.284 303.178,222.527 313.500 L 221.314 316.833 223.136 314.871 C 224.942 312.926,224.971 312.910,226.396 313.138 C 228.529 313.479,228.559 313.593,227.558 317.547 C 227.063 319.502,226.710 321.155,226.775 321.219 C 226.958 321.402,229.687 318.068,231.036 316.014 C 234.286 311.066,237.310 310.239,238.832 313.882 C 239.763 316.109,239.026 317.153,234.583 319.907 L 232.667 321.095 232.667 322.881 C 232.667 325.475,233.111 325.327,237.799 321.168 C 239.475 319.681,240.385 318.528,241.356 316.663 C 242.073 315.284,243.326 313.409,244.140 312.495 L 245.620 310.833 247.710 311.967 C 249.021 312.678,249.847 312.959,249.926 312.721 C 249.996 312.513,250.312 312.022,250.628 311.631 L 251.204 310.920 252.574 311.619 L 253.944 312.318 251.780 316.332 C 249.400 320.746,249.155 321.957,251.150 319.454 C 251.860 318.563,253.145 317.083,254.004 316.167 C 255.776 314.278,257.927 307.862,259.385 300.115 C 259.777 298.035,260.234 296.333,260.401 296.333 C 260.568 296.333,261.367 296.500,262.176 296.704 M139.933 299.353 C 142.191 300.648,142.257 300.874,141.205 303.762 C 140.166 306.619,140.161 306.667,140.944 306.667 C 141.841 306.667,142.000 306.968,141.585 307.880 C 141.291 308.524,141.036 308.656,140.357 308.513 C 139.544 308.342,134.240 320.018,134.853 320.631 C 135.234 321.012,137.696 318.085,138.169 316.689 C 139.287 313.381,142.751 310.002,144.386 310.623 C 146.532 311.439,148.502 314.543,147.889 316.143 C 147.681 316.683,144.611 318.323,142.567 318.985 L 141.301 319.396 141.400 321.115 C 141.542 323.560,142.098 323.504,146.665 320.588 L 150.482 318.149 151.447 315.586 L 152.411 313.024 153.622 313.529 C 154.288 313.807,155.175 314.258,155.593 314.531 L 156.353 315.028 154.816 317.848 C 152.643 321.835,153.116 321.967,155.734 318.106 C 156.955 316.306,158.543 314.260,159.264 313.560 L 160.576 312.287 161.502 313.084 L 162.428 313.880 161.381 317.024 C 160.007 321.147,160.016 321.163,162.262 318.744 C 164.369 316.473,164.576 316.383,165.664 317.264 L 166.401 317.861 165.360 320.812 C 164.162 324.206,164.251 324.664,165.751 322.815 C 169.969 317.615,171.919 316.819,168.155 321.833 C 166.779 323.667,165.093 326.254,164.410 327.582 C 162.996 330.328,163.178 330.208,161.750 329.337 C 160.444 328.541,160.399 327.969,161.336 324.062 C 161.701 322.538,161.995 321.113,161.990 320.896 C 161.976 320.384,160.612 322.553,159.137 325.431 L 157.977 327.696 156.655 326.953 C 155.928 326.545,155.335 326.126,155.337 326.022 C 155.339 325.918,155.789 324.346,156.337 322.529 C 157.627 318.249,157.593 317.790,156.142 319.944 C 155.036 321.587,151.144 328.402,150.908 329.108 C 150.749 329.585,149.302 329.013,149.408 328.515 C 149.459 328.276,149.143 327.791,148.708 327.436 L 147.915 326.792 148.772 323.821 C 149.831 320.144,149.914 320.195,146.773 322.581 C 142.050 326.169,140.161 325.990,138.157 321.766 L 137.579 320.548 136.641 321.691 C 136.124 322.319,135.446 323.396,135.134 324.083 C 134.821 324.771,134.424 325.333,134.251 325.333 C 133.666 325.333,132.172 324.265,131.378 323.280 L 130.589 322.301 131.501 319.801 C 132.002 318.426,132.335 317.224,132.240 317.129 C 131.989 316.878,129.450 320.519,128.579 322.380 C 127.696 324.265,127.586 324.289,125.589 323.022 C 122.950 321.349,123.029 319.552,126.002 313.662 C 127.223 311.243,126.736 309.500,124.840 309.500 C 124.748 309.500,123.786 312.102,122.703 315.283 C 120.555 321.592,120.386 321.908,119.452 321.375 C 117.864 320.470,117.872 320.548,119.116 317.960 C 121.063 313.909,122.813 308.311,122.360 307.586 C 122.074 307.128,122.078 306.649,122.376 305.655 C 122.833 304.129,122.768 304.159,124.032 304.905 C 125.025 305.492,125.069 305.575,125.131 307.000 C 125.163 307.744,129.187 310.896,130.786 311.429 C 131.001 311.500,130.382 313.244,129.274 315.691 C 127.300 320.051,127.123 320.901,128.589 318.990 C 129.076 318.354,130.420 316.845,131.574 315.637 C 133.411 313.714,133.797 313.073,134.670 310.491 C 135.853 306.991,135.841 307.123,135.000 306.903 C 133.945 306.628,134.144 305.596,135.227 305.726 C 136.213 305.844,136.540 305.030,137.363 300.417 C 137.796 297.994,137.661 298.050,139.933 299.353 M195.217 303.783 C 198.503 307.068,196.935 312.312,191.920 314.811 C 190.130 315.703,186.765 316.077,188.149 315.230 C 191.822 312.981,196.161 305.333,193.763 305.333 C 190.147 305.333,182.591 312.868,181.276 317.784 C 180.750 319.752,180.780 319.776,184.817 320.486 C 189.315 321.278,189.281 321.266,189.841 322.349 C 190.340 323.314,190.318 323.435,189.293 325.359 C 186.238 331.090,181.494 333.241,178.293 330.347 L 176.833 329.027 178.811 329.014 C 182.030 328.991,184.148 327.595,186.454 323.974 L 187.002 323.115 183.432 322.366 C 179.064 321.449,178.769 321.297,177.979 319.556 C 175.900 314.977,182.736 305.703,190.500 302.572 C 192.700 301.685,193.264 301.830,195.217 303.783 " stroke="none" fill="#ffffff" fill-rule="evenodd"></path></g></svg>